<svg xmlns="http://www.w3.org/2000/svg" version="1.0" width="1360.000000pt" height="143.000000pt" viewBox="0 0 1360.000000 143.000000" preserveAspectRatio="xMidYMid meet">
<g transform="translate(0.000000,143.000000) scale(0.100000,-0.100000)" fill="#b51200" stroke="none">
<path d="M9475 1410 c-576 -37 -1084 -114 -1605 -246 -328 -82 -486 -134 -945 -309 -230 -87 -682 -241 -930 -315 -1830 -550 -3541 -646 -4955 -279 -330 86 -731 236 -945 354 l-95 53 0 -334 0 -334 6800 0 6800 0 -2 336 -3 336 -120 49 c-883 367 -1786 586 -2780 675 -197 18 -1014 27 -1220 14z"/>
</g>
</svg>
